<?xml version="1.0" standalone="no"?>
<!DOCTYPE svg PUBLIC "-//W3C//DTD SVG 20010904//EN"
 "http://www.w3.org/TR/2001/REC-SVG-20010904/DTD/svg10.dtd">
<svg version="1.0" xmlns="http://www.w3.org/2000/svg"
 width="500.000000pt" height="500.000000pt" viewBox="0 0 500.000000 500.000000"
 preserveAspectRatio="xMidYMid meet">

<g transform="translate(0.000000,500.000000) scale(0.100000,-0.100000)"
fill="#000000" stroke="none">
<path d="M2174 4231 c-32 -20 -50 -43 -133 -171 -26 -41 -87 -117 -135 -168
-101 -110 -172 -241 -209 -387 -13 -49 -30 -103 -38 -119 l-16 -28 -100 113
c-178 203 -262 268 -344 269 -68 0 -123 -70 -135 -174 -8 -66 10 -188 40 -271
l21 -60 65 -6 c36 -4 142 -7 237 -8 l172 -1 78 -76 c43 -42 104 -99 135 -126
32 -28 60 -59 63 -69 3 -10 2 -44 -4 -76 -5 -32 -17 -118 -27 -191 -13 -107
-21 -138 -37 -153 -18 -16 -19 -22 -8 -61 8 -30 9 -65 3 -113 -5 -39 -6 -77
-1 -87 6 -10 4 -18 -4 -21 -7 -3 -19 -58 -31 -143 -13 -99 -25 -147 -39 -167
-18 -27 -29 -119 -14 -133 3 -3 42 -9 86 -13 l80 -7 6 48 c6 39 3 55 -14 84
-13 21 -21 52 -21 79 0 70 5 75 70 75 89 0 106 -10 114 -65 6 -37 3 -54 -13
-86 -13 -24 -21 -59 -21 -88 0 -46 1 -49 31 -55 17 -3 58 -6 90 -6 l59 0 0 51
c0 33 -7 63 -19 83 -10 17 -22 51 -26 76 -4 25 -12 50 -17 57 -5 7 -7 17 -3
23 4 6 3 40 0 75 -7 60 -9 64 -27 54 -24 -13 -31 -8 -22 15 4 9 13 15 20 12 8
-3 14 1 14 9 0 18 -17 28 -25 15 -7 -12 -25 -4 -25 11 0 5 6 9 14 9 8 0 18 4
21 10 3 5 0 7 -8 4 -21 -8 -40 42 -25 66 7 11 16 20 20 20 5 0 8 6 8 14 0 8
-8 13 -17 12 -12 0 -18 6 -18 18 0 25 22 32 28 9 4 -17 5 -17 6 0 0 10 -4 27
-9 38 -12 22 -2 49 10 29 4 -7 13 -9 20 -5 8 5 6 13 -8 29 -10 11 -22 26 -25
32 -10 17 -49 305 -43 312 4 3 45 -13 93 -35 49 -23 96 -43 106 -47 19 -6 23
-21 7 -31 -13 -8 -13 -45 -1 -45 5 0 12 -13 16 -30 4 -16 11 -32 16 -35 5 -4
6 1 3 9 -4 11 0 16 10 16 20 0 21 -34 1 -54 -16 -16 -20 -36 -7 -36 4 0 8 -16
8 -35 0 -46 42 -97 129 -157 38 -27 77 -60 87 -75 22 -35 23 -96 2 -128 -15
-23 -15 -27 6 -60 20 -32 21 -40 10 -84 -15 -63 -37 -83 -87 -79 -56 4 -73 44
-73 171 l0 97 -49 0 c-47 0 -49 -1 -54 -33 -3 -19 -1 -81 3 -140 14 -166 65
-251 166 -272 46 -9 107 19 138 64 26 37 56 158 56 226 0 18 7 38 15 45 25 21
28 49 6 76 -15 20 -21 41 -21 80 0 64 -23 137 -57 183 -14 18 -60 55 -102 83
-42 27 -80 56 -84 64 -5 8 -12 12 -18 9 -5 -4 -9 -1 -9 4 0 6 5 11 10 11 17 0
11 46 -10 73 -11 14 -20 30 -20 36 0 15 27 14 33 -1 4 -10 8 -10 14 -2 5 8 34
10 86 6 72 -4 91 -12 67 -27 -12 -8 -13 -75 -1 -75 5 0 11 7 15 15 3 8 15 15
27 15 15 0 19 -4 15 -16 -4 -12 0 -15 17 -12 23 3 24 6 26 74 l1 40 94 32 c52
18 97 32 100 32 3 0 6 -25 6 -55 0 -40 4 -57 15 -61 8 -4 12 -10 9 -15 -3 -5
-8 -7 -12 -5 -4 2 -8 -13 -9 -35 -1 -21 2 -41 7 -44 6 -4 6 -14 -2 -28 -11
-21 -10 -21 7 -7 17 14 18 13 13 -7 -5 -20 -3 -22 18 -17 14 4 31 1 39 -6 13
-11 15 -5 15 44 0 38 -4 55 -12 54 -18 -4 -22 34 -5 44 13 7 16 27 16 100 -1
80 2 93 21 112 20 20 22 20 35 3 9 -13 23 -17 47 -15 32 3 33 4 33 51 0 31 5
51 15 57 23 15 27 13 50 -24 22 -37 33 -104 19 -121 -4 -6 -5 -37 -2 -68 5
-50 8 -57 24 -52 13 5 19 1 19 -10 0 -11 -5 -15 -15 -11 -8 3 -15 1 -15 -4 0
-6 5 -10 10 -10 6 0 10 -4 10 -10 0 -5 -9 -10 -21 -10 -15 0 -19 -4 -15 -16 3
-9 6 -17 6 -20 0 -2 7 -1 16 3 12 4 15 2 12 -8 -3 -8 -11 -13 -17 -11 -6 1
-11 -10 -11 -25 0 -16 -9 -43 -21 -62 l-21 -34 21 -38 c16 -28 21 -54 21 -111
0 -46 5 -79 12 -86 10 -10 10 -14 0 -21 -13 -8 -15 -118 -2 -136 4 -5 10 -17
13 -26 4 -13 1 -16 -13 -12 -17 4 -18 0 -16 -42 3 -34 -2 -58 -16 -81 -20 -34
-33 -129 -20 -138 4 -2 77 2 162 9 85 8 165 14 178 15 22 0 22 2 22 120 0 119
0 120 -23 120 -24 0 -57 -27 -57 -47 0 -13 -24 -23 -55 -23 -13 0 -29 -8 -34
-17 -6 -10 -11 -12 -11 -5 0 6 -9 12 -20 12 -24 0 -22 -9 -24 114 -2 66 -6
101 -14 104 -17 5 -15 22 2 22 11 0 14 18 12 88 -2 48 -1 93 2 100 2 7 23 12
53 12 38 0 49 4 49 16 0 8 4 13 8 10 5 -3 9 27 10 66 l1 70 -45 -5 c-62 -7
-87 1 -81 24 3 11 2 21 -2 23 -4 3 -4 35 0 73 6 56 4 69 -9 79 -12 9 -13 15
-5 25 14 18 23 119 11 119 -5 0 -3 6 4 13 7 8 39 17 70 20 55 7 57 6 78 -24
27 -37 73 -38 78 -1 2 12 -1 22 -7 22 -6 0 -11 7 -11 15 0 8 5 15 10 15 6 0
10 32 10 76 l0 77 -47 -6 c-121 -16 -183 -19 -183 -11 0 6 24 33 53 62 l53 52
154 1 c210 1 319 11 330 29 17 28 51 171 57 239 11 134 -40 228 -131 238 -85
10 -172 -54 -352 -258 l-97 -110 -18 30 c-10 17 -25 60 -34 96 -39 169 -110
300 -231 427 -40 42 -94 110 -120 150 -26 40 -59 90 -72 111 -31 47 -79 77
-123 77 -19 0 -61 -11 -94 -25 -46 -19 -78 -25 -135 -25 -57 0 -89 6 -135 25
-72 30 -119 32 -161 6z m1146 -1211 c8 -5 11 -12 8 -16 -10 -9 -38 3 -38 16 0
12 10 13 30 0z m70 -50 c0 -5 -4 -10 -10 -10 -5 0 -10 5 -10 10 0 6 5 10 10
10 6 0 10 -4 10 -10z m40 -55 c0 -8 -4 -15 -10 -15 -5 0 -10 7 -10 15 0 8 5
15 10 15 6 0 10 -7 10 -15z m-227 -32 c-7 -2 -9 -12 -6 -21 6 -15 5 -15 -10
-3 -22 17 -22 29 1 33 20 5 33 -3 15 -9z m17 -73 c0 -5 -4 -10 -10 -10 -5 0
-10 5 -10 10 0 6 5 10 10 10 6 0 10 -4 10 -10z m0 -86 c0 -7 -8 -10 -20 -7
-24 6 -34 19 -25 33 7 12 45 -10 45 -26z m-1266 -41 c2 -10 7 -53 11 -95 6
-67 9 -78 25 -78 27 0 33 -16 13 -32 -21 -15 -27 -56 -14 -89 5 -13 10 -18 10
-11 1 6 6 12 12 12 6 0 8 -7 5 -16 -4 -12 -2 -15 9 -10 8 3 15 1 15 -5 0 -6
-9 -13 -20 -16 -22 -6 -27 -29 -9 -35 9 -3 9 -13 0 -39 -8 -25 -23 -42 -51
-58 -40 -22 -40 -22 -40 -2 0 12 -6 21 -13 21 -27 0 -35 20 -25 67 8 36 7 47
-3 54 -10 6 -11 11 -3 17 11 7 23 55 30 117 1 17 7 64 13 105 6 41 11 83 11
93 0 9 4 17 9 17 5 0 12 -8 15 -17z m365 -2 c13 -10 20 -21 15 -23 -15 -9 -54
10 -54 27 0 20 10 19 39 -4z m565 -77 c8 -20 -1 -34 -20 -34 -8 0 -14 8 -14
18 0 33 23 44 34 16z m321 6 c3 -5 1 -10 -4 -10 -6 0 -11 5 -11 10 0 6 2 10 4
10 3 0 8 -4 11 -10z m-845 -39 c0 -12 -20 -25 -27 -18 -7 7 6 27 18 27 5 0 9
-4 9 -9z m-40 -21 c0 -5 -4 -10 -10 -10 -5 0 -10 5 -10 10 0 6 5 10 10 10 6 0
10 -4 10 -10z m575 0 c3 -5 1 -10 -4 -10 -6 0 -11 5 -11 10 0 6 2 10 4 10 3 0
8 -4 11 -10z m335 -10 c0 -23 -4 -24 -33 -8 -21 11 -21 11 -2 19 31 12 35 11
35 -11z m-840 -30 c0 -5 -5 -10 -11 -10 -5 0 -7 5 -4 10 3 6 8 10 11 10 2 0 4
-4 4 -10z m940 -15 c0 -8 -4 -15 -9 -15 -13 0 -22 16 -14 24 11 11 23 6 23 -9z
m-990 -15 c0 -11 -4 -20 -10 -20 -5 0 -10 5 -10 11 0 5 -4 7 -10 4 -11 -7 -14
8 -3 18 13 14 33 6 33 -13z m-497 -15 c-3 -9 -8 -14 -10 -11 -3 3 -2 9 2 15 9
16 15 13 8 -4z m597 -41 c0 -17 -22 -14 -28 4 -2 7 3 12 12 12 9 0 16 -7 16
-16z m30 -8 c0 -3 -4 -8 -10 -11 -5 -3 -10 -1 -10 4 0 6 5 11 10 11 6 0 10 -2
10 -4z m-600 -26 c0 -5 -4 -10 -10 -10 -5 0 -10 5 -10 10 0 6 5 10 10 10 6 0
10 -4 10 -10z m590 -30 c0 -5 -2 -10 -4 -10 -3 0 -8 5 -11 10 -3 6 -1 10 4 10
6 0 11 -4 11 -10z m-616 -41 c-3 -5 -10 -7 -15 -3 -5 3 -7 10 -3 15 3 5 10 7
15 3 5 -3 7 -10 3 -15z m-14 -40 c0 -5 -4 -9 -10 -9 -5 0 -10 7 -10 16 0 8 5
12 10 9 6 -3 10 -10 10 -16z m220 -60 c0 -20 -15 -26 -25 -9 -9 15 3 43 15 35
5 -3 10 -15 10 -26z m-230 -35 c0 -8 -4 -12 -10 -9 -5 3 -10 10 -10 16 0 5 5
9 10 9 6 0 10 -7 10 -16z m190 -4 c0 -5 -4 -10 -10 -10 -5 0 -10 5 -10 10 0 6
5 10 10 10 6 0 10 -4 10 -10z m70 -20 c0 -5 -4 -10 -10 -10 -5 0 -10 5 -10 10
0 6 5 10 10 10 6 0 10 -4 10 -10z m-140 -20 c0 -5 -4 -10 -10 -10 -5 0 -10 5
-10 10 0 6 5 10 10 10 6 0 10 -4 10 -10z m-56 -31 c-8 -13 -24 -1 -24 18 0 13
3 13 15 3 8 -7 12 -16 9 -21z m206 27 c0 -3 -4 -8 -10 -11 -5 -3 -10 -1 -10 4
0 6 5 11 10 11 6 0 10 -2 10 -4z m1123 -10 c4 -10 0 -12 -14 -9 -22 6 -26 23
-5 23 8 0 16 -6 19 -14z m-1179 -27 c-10 -16 -24 -9 -24 12 0 18 2 19 15 9 8
-7 12 -16 9 -21z m1156 -20 c0 -5 -4 -9 -10 -9 -5 0 -10 7 -10 16 0 8 5 12 10
9 6 -3 10 -10 10 -16z m250 -49 c0 -5 -4 -10 -10 -10 -5 0 -10 5 -10 10 0 6 5
10 10 10 6 0 10 -4 10 -10z m0 -30 c0 -5 -4 -10 -10 -10 -5 0 -10 5 -10 10 0
6 5 10 10 10 6 0 10 -4 10 -10z m-200 -75 c0 -8 -4 -15 -10 -15 -5 0 -10 7
-10 15 0 8 5 15 10 15 6 0 10 -7 10 -15z m100 -40 c0 -8 -4 -15 -10 -15 -5 0
-10 7 -10 15 0 8 5 15 10 15 6 0 10 -7 10 -15z"/>
<path d="M360 3271 c0 -32 8 -67 20 -91 17 -34 20 -59 20 -189 0 -123 2 -149
14 -145 8 3 16 -3 19 -17 4 -15 1 -23 -14 -26 -10 -3 -19 -14 -19 -24 0 -10
-5 -21 -10 -24 -6 -4 -8 -15 -5 -26 4 -13 2 -19 -9 -19 -12 0 -9 -11 14 -50
16 -27 25 -50 20 -50 -6 0 -10 -82 -10 -214 0 -200 -1 -215 -21 -239 -16 -21
-19 -38 -17 -84 l3 -58 79 -18 c64 -15 81 -16 87 -5 15 24 9 78 -13 121 -20
38 -22 54 -19 179 2 118 0 139 -13 144 -9 3 -16 15 -16 26 0 14 5 18 15 14 12
-4 15 5 15 54 0 52 3 60 19 60 14 0 17 6 13 26 -6 35 20 28 28 -7 4 -16 14
-25 30 -27 20 -2 29 5 42 33 16 33 16 36 -3 80 -11 25 -26 45 -34 45 -8 0 -14
-5 -13 -11 2 -6 -5 -13 -15 -14 -14 -3 -16 0 -7 10 8 10 8 15 0 20 -17 11 -60
-16 -60 -37 0 -28 -75 -26 -90 3 -24 44 15 61 48 20 11 -14 12 -12 10 9 -2 16
2 25 12 25 18 0 27 82 11 98 -8 8 -11 6 -11 -5 0 -21 -31 -32 -42 -16 -12 20
-10 28 10 35 50 18 71 75 32 88 -11 3 -20 14 -20 23 1 16 2 15 11 0 20 -35 29
-17 29 57 l0 75 40 0 c53 0 98 -24 106 -55 7 -26 31 -45 58 -45 14 0 16 17 16
113 l0 112 -158 34 c-86 19 -167 37 -179 39 -21 4 -23 1 -23 -47z m216 -91
c16 0 19 -26 4 -35 -6 -3 -15 6 -20 20 -10 26 -13 51 -3 28 2 -7 11 -13 19
-13z m-46 -494 c0 -18 -15 -36 -30 -36 -27 0 -34 17 -13 29 18 11 43 14 43 7z
m-90 -19 c0 -19 -10 -27 -25 -20 -17 6 -8 33 11 33 8 0 14 -6 14 -13z m190
-16 c0 -21 -13 -41 -26 -41 -14 0 -19 31 -7 43 10 10 33 8 33 -2z m-150 -32
c0 -5 -4 -9 -9 -9 -5 0 -16 -3 -25 -6 -10 -4 -16 -1 -16 9 0 9 10 15 25 15 14
0 25 -4 25 -9z"/>
<path d="M4402 3263 c-18 -9 -47 -33 -65 -54 -37 -42 -72 -131 -63 -155 4 -9
1 -23 -5 -30 -6 -8 -13 -79 -16 -176 -3 -94 -11 -176 -18 -194 -10 -24 -10
-35 0 -55 9 -16 14 -94 18 -239 5 -229 15 -289 59 -345 12 -15 37 -34 56 -42
70 -29 157 30 209 141 28 61 28 63 33 306 4 216 7 248 23 272 18 26 18 27 -3
56 -17 23 -21 40 -18 71 2 30 0 40 -8 37 -7 -3 -18 1 -24 9 -9 11 -7 17 9 27
19 12 21 22 21 109 0 52 -3 99 -7 103 -4 4 -8 20 -9 36 -3 63 -77 140 -134
140 -14 0 -40 -8 -58 -17z m76 -112 c3 -8 -1 -12 -9 -9 -7 2 -15 10 -17 17 -3
8 1 12 9 9 7 -2 15 -10 17 -17z m62 -31 c0 -5 -4 -10 -10 -10 -5 0 -10 5 -10
10 0 6 5 10 10 10 6 0 10 -4 10 -10z m-30 -27 c5 -5 8 -52 9 -165 0 -63 3 -78
16 -78 8 0 15 -9 15 -20 0 -11 -7 -20 -15 -20 -9 0 -15 -9 -15 -25 0 -13 -10
-45 -22 -69 -21 -45 -21 -46 -2 -67 17 -19 19 -37 19 -208 0 -243 -19 -301
-99 -301 -49 0 -60 42 -64 251 -4 174 -3 188 17 228 20 39 21 42 4 49 -10 4
-18 17 -19 30 -3 104 -3 103 -24 90 -16 -10 -23 -10 -36 4 -9 9 -13 21 -9 29
6 9 12 7 23 -7 12 -16 14 -16 9 -2 -8 22 12 35 24 17 14 -23 11 8 -3 32 -10
17 -10 23 0 26 15 6 17 113 2 113 -19 0 -10 18 11 23 13 4 20 11 16 20 -9 23
69 67 107 60 17 -3 33 -8 36 -10z m70 -18 c0 -8 -4 -15 -10 -15 -5 0 -10 7
-10 15 0 8 5 15 10 15 6 0 10 -7 10 -15z m-270 -105 c0 -6 -7 -10 -15 -10 -8
0 -15 2 -15 4 0 2 -3 12 -7 21 -5 15 -3 16 15 6 12 -7 22 -16 22 -21z m267
-26 c-9 -9 -28 6 -21 18 4 6 10 6 17 -1 6 -6 8 -13 4 -17z m-277 -83 c0 -5 -7
-14 -15 -21 -12 -10 -15 -10 -15 2 0 8 3 18 7 21 9 10 23 9 23 -2z m280 -76
c0 -14 -4 -25 -10 -25 -5 0 -10 11 -10 25 0 14 5 25 10 25 6 0 10 -11 10 -25z
m-255 -45 c3 -5 -1 -10 -10 -10 -9 0 -13 5 -10 10 3 6 8 10 10 10 2 0 7 -4 10
-10z m-35 -350 c0 -5 -5 -10 -11 -10 -5 0 -7 5 -4 10 3 6 8 10 11 10 2 0 4 -4
4 -10z"/>
<path d="M850 3174 c-37 -32 -60 -74 -64 -117 -2 -18 -6 -39 -9 -47 -11 -26
-13 -300 -2 -300 7 0 7 -3 0 -8 -5 -4 -17 -21 -26 -38 -14 -27 -14 -32 0 -54
13 -19 17 -68 22 -264 5 -221 7 -246 29 -301 41 -106 125 -166 203 -144 42 11
70 41 99 104 21 47 23 65 26 275 2 182 6 231 19 256 14 28 14 33 -1 62 -9 17
-16 51 -16 77 0 32 -4 45 -14 45 -24 0 -29 31 -5 37 19 5 20 11 16 102 -7 162
-34 239 -106 304 -36 32 -48 37 -90 37 -39 0 -56 -6 -81 -26z m150 -116 c0 -5
-9 -4 -20 2 -11 6 -18 15 -14 21 6 11 34 -7 34 -23z m-10 -45 c33 -16 38 -23
38 -53 3 -204 5 -227 21 -226 10 1 16 -7 16 -19 0 -14 -6 -19 -17 -17 -14 2
-18 -4 -18 -26 0 -15 -7 -37 -15 -48 -19 -25 -19 -53 1 -75 36 -40 27 -397
-11 -456 -11 -16 -25 -23 -49 -23 -69 0 -85 52 -87 296 -2 157 0 184 16 207
14 22 15 30 5 42 -7 8 -16 12 -21 9 -5 -3 -9 0 -9 5 0 6 5 11 11 11 6 0 7 8 3
23 -5 12 -7 39 -6 60 2 35 1 38 -18 32 -12 -4 -27 -1 -35 5 -17 14 -20 50 -5
50 6 0 10 -6 10 -14 0 -8 4 -17 9 -20 5 -4 7 3 4 14 -3 11 -1 20 5 20 6 0 12
-10 15 -22 3 -21 4 -21 11 -5 6 12 3 24 -9 36 -15 18 -15 20 0 29 14 7 16 19
12 53 -2 24 -8 55 -12 68 -6 18 -5 22 4 17 7 -5 22 3 36 18 28 31 46 32 95 9z
m67 -9 c-9 -9 -28 6 -21 18 4 6 10 6 17 -1 6 -6 8 -13 4 -17z m-249 -36 c7 -7
12 -16 12 -20 0 -15 -15 -8 -28 12 -13 22 -3 27 16 8z m292 -19 c0 -5 -7 -9
-15 -9 -15 0 -20 12 -9 23 8 8 24 -1 24 -14z m-290 -108 c0 -5 -7 -14 -15 -21
-16 -14 -18 -10 -9 14 6 17 24 22 24 7z m278 -16 c-2 -5 -11 -11 -21 -12 -15
-3 -16 -1 -5 12 14 15 32 16 26 0z m-248 -115 c0 -5 -4 -10 -10 -10 -5 0 -10
5 -10 10 0 6 5 10 10 10 6 0 10 -4 10 -10z m258 -56 c-1 -10 -7 -16 -13 -13
-10 4 -14 28 -7 42 7 14 24 -10 20 -29z m-288 -284 c0 -5 -4 -10 -10 -10 -5 0
-10 5 -10 10 0 6 5 10 10 10 6 0 10 -4 10 -10z"/>
<path d="M3830 3165 c-30 -8 -67 -14 -82 -15 -27 0 -28 -2 -28 -55 0 -36 6
-65 17 -82 14 -21 17 -50 16 -181 -1 -145 0 -157 20 -172 12 -10 17 -22 13
-29 -6 -9 -12 -7 -22 6 -12 16 -13 15 -14 -14 0 -17 -8 -45 -17 -61 -16 -28
-16 -32 -2 -49 23 -26 39 -101 29 -129 -5 -13 -9 -93 -9 -178 1 -139 2 -154
17 -150 15 5 15 4 0 -9 -10 -8 -18 -21 -18 -29 0 -8 -7 -23 -15 -34 -9 -11
-14 -42 -15 -78 l0 -58 68 6 c104 11 102 9 102 74 0 40 -6 66 -20 87 -17 26
-20 47 -20 172 0 104 -3 143 -12 146 -10 4 -10 7 0 18 15 17 16 46 0 51 -8 3
-3 15 14 33 20 21 37 29 67 30 23 1 41 -2 41 -6 0 -5 -5 -9 -11 -9 -14 0 -4
-107 11 -125 5 -6 9 -24 8 -40 0 -26 54 -329 68 -376 4 -14 13 -14 72 -5 l67
11 3 49 c4 60 -13 104 -43 112 -20 5 -26 18 -40 82 -51 242 -65 297 -74 300
-17 6 -13 41 8 70 32 47 43 73 30 70 -6 -2 -14 3 -16 10 -3 9 1 12 13 10 19
-3 34 35 47 114 4 29 3 36 -9 31 -20 -7 -18 14 3 25 14 8 15 24 10 120 -12
239 -83 305 -277 257z m210 -90 c0 -8 7 -15 15 -15 8 0 15 -6 15 -14 0 -24
-15 -26 -33 -5 -19 21 -23 49 -7 49 6 0 10 -7 10 -15z m-42 -82 c7 -10 12 -48
12 -96 0 -43 5 -87 11 -98 6 -13 7 -25 1 -32 -5 -7 -12 -32 -16 -55 -4 -24
-12 -49 -19 -55 -16 -16 -78 -37 -105 -37 -12 0 -22 -4 -22 -10 0 -5 -5 -10
-10 -10 -6 0 -8 17 -5 43 2 23 2 34 -1 24 -5 -14 -9 -16 -20 -6 -19 16 -18 26
5 32 18 4 19 16 20 148 1 82 6 148 12 155 22 27 115 25 137 -3z m72 -258 c0
-8 -7 -15 -15 -15 -16 0 -20 12 -8 23 11 12 23 8 23 -8z m-60 -130 c0 -9 -7
-18 -15 -21 -8 -4 -15 -12 -15 -20 0 -8 7 -14 15 -14 19 0 19 -14 -1 -34 -19
-20 -44 -21 -44 -2 0 9 -10 13 -30 12 -37 -1 -69 39 -55 70 8 18 9 18 12 -2 3
-16 9 -20 24 -17 10 3 27 -1 36 -8 15 -12 16 -12 10 5 -4 10 -2 25 4 32 16 19
59 18 59 -1z m-85 -5 c-3 -5 -11 -10 -16 -10 -6 0 -7 5 -4 10 3 6 11 10 16 10
6 0 7 -4 4 -10z m-55 -73 c0 -9 -46 -4 -56 5 -3 4 -3 11 0 16 7 11 56 -8 56
-21z m-101 -13 c-14 -18 -24 -11 -15 11 3 9 11 13 16 10 8 -5 7 -11 -1 -21z
m51 -25 c0 -5 -4 -9 -10 -9 -5 0 -10 7 -10 16 0 8 5 12 10 9 6 -3 10 -10 10
-16z m92 -11 c-15 -15 -26 -4 -18 18 5 13 9 15 18 6 9 -9 9 -15 0 -24z m-122
8 c0 -8 8 -16 18 -19 16 -4 16 -4 -1 -12 -21 -9 -53 17 -43 34 10 16 26 14 26
-3z m20 -80 c0 -3 -4 -8 -10 -11 -5 -3 -10 -1 -10 4 0 6 5 11 10 11 6 0 10 -2
10 -4z"/>
<path d="M1200 3110 c0 -35 7 -63 20 -84 17 -28 19 -52 21 -194 1 -143 3 -163
20 -178 10 -9 16 -21 12 -27 -4 -6 -12 -3 -20 8 -12 18 -13 17 -13 -6 0 -13
-7 -35 -16 -47 -10 -15 -14 -32 -9 -49 6 -24 7 -25 25 -8 18 16 20 16 20 2 0
-9 -4 -19 -10 -22 -14 -9 -13 -78 2 -93 9 -9 9 -12 0 -12 -9 0 -12 -43 -12
-175 1 -105 5 -173 11 -170 5 4 9 1 9 -4 0 -6 -4 -11 -10 -11 -5 0 -10 -6 -10
-14 0 -7 -9 -25 -21 -39 -16 -21 -19 -38 -17 -79 l3 -53 83 -11 c45 -6 84 -8
87 -6 14 15 3 110 -17 142 -19 32 -21 47 -19 173 1 87 -2 144 -9 152 -7 9 -7
21 0 41 8 20 8 30 1 32 -6 2 -11 8 -11 13 0 6 5 7 10 4 6 -3 10 -1 10 5 0 6 5
16 10 23 6 7 16 20 23 29 9 13 16 15 27 8 13 -9 12 -12 -4 -25 -19 -14 -18
-15 17 -15 20 0 37 -4 37 -10 0 -5 -7 -10 -15 -10 -8 0 -15 -1 -15 -3 0 -23
24 -125 32 -134 5 -7 7 -20 4 -30 -3 -10 12 -108 33 -218 l37 -200 65 -6 c35
-3 67 -4 70 -3 3 2 5 30 5 64 -1 57 -4 64 -35 92 -32 29 -35 37 -72 221 -22
105 -46 198 -54 207 -21 23 -19 30 15 70 50 59 88 201 58 214 -10 3 -8 9 5 19
22 19 23 118 1 225 -35 167 -85 210 -269 227 -38 4 -80 9 -92 12 -22 5 -23 2
-23 -47z m330 -121 c0 -5 -4 -9 -10 -9 -5 0 -10 7 -10 16 0 8 5 12 10 9 6 -3
10 -10 10 -16z m-57 -48 c19 -18 23 -35 25 -114 2 -50 8 -97 13 -104 6 -7 6
-13 1 -17 -10 -6 -26 -81 -23 -103 1 -8 -5 -10 -14 -7 -8 3 -15 2 -15 -2 0 -5
-29 -10 -64 -10 l-64 -1 5 32 c3 21 1 35 -8 40 -9 6 -11 3 -5 -10 5 -15 4 -16
-9 -5 -21 17 -19 27 7 33 18 5 19 8 8 21 -8 11 -9 16 -1 16 7 0 11 40 11 128
0 71 2 131 5 134 13 12 108 -10 128 -31z m83 28 c3 -6 1 -16 -5 -22 -9 -9 -14
-8 -21 3 -9 15 -4 30 10 30 5 0 12 -5 16 -11z m-1 -329 c-5 -8 -11 -8 -17 -2
-6 6 -7 16 -3 22 5 8 11 8 17 2 6 -6 7 -16 3 -22z m-189 -85 c-4 -10 1 -15 16
-15 12 0 29 -7 38 -15 15 -14 17 -13 16 7 -1 18 5 24 27 26 22 3 27 -1 27 -17
0 -12 -4 -21 -10 -21 -16 0 -12 -22 6 -35 15 -10 15 -13 -1 -28 -22 -23 -42
-21 -48 4 -4 16 -11 19 -26 14 -16 -5 -26 2 -46 34 -25 38 -27 61 -3 61 5 0 8
-7 4 -15z m44 5 c0 -5 -4 -10 -10 -10 -5 0 -10 5 -10 10 0 6 5 10 10 10 6 0
10 -4 10 -10z m-77 -41 c10 -11 16 -23 14 -26 -9 -9 -47 17 -47 32 0 21 12 19
33 -6z m217 5 c0 -8 -4 -12 -10 -9 -5 3 -10 10 -10 16 0 5 5 9 10 9 6 0 10 -7
10 -16z m-263 -68 c13 -5 14 -4 4 8 -14 16 -6 40 10 31 14 -9 4 -50 -13 -53
-21 -4 -42 24 -32 45 7 16 8 16 11 -4 2 -12 11 -24 20 -27z m7 -67 c-6 -11
-24 -2 -24 11 0 5 7 7 15 4 8 -4 12 -10 9 -15z m196 -159 c0 -5 -4 -10 -10
-10 -5 0 -10 5 -10 10 0 6 5 10 10 10 6 0 10 -4 10 -10z"/>
<path d="M3555 3131 l-50 -6 -3 -53 c-2 -41 1 -58 17 -79 20 -24 21 -39 21
-222 0 -178 -2 -199 -20 -229 l-20 -33 22 -29 c17 -23 21 -41 19 -85 -2 -46 0
-54 13 -49 9 3 16 1 16 -5 0 -6 -6 -11 -13 -11 -11 0 -14 -35 -16 -166 -1
-143 -4 -171 -21 -205 -12 -23 -20 -58 -20 -90 l0 -52 63 7 c121 14 117 12
117 70 0 34 -7 61 -20 81 -16 24 -20 47 -20 122 0 50 -5 95 -10 98 -7 4 -7 12
0 25 13 24 13 140 0 140 -5 0 -10 -4 -10 -10 0 -5 -7 -10 -15 -10 -24 0 -17
28 8 32 17 2 23 11 25 36 3 34 -13 43 -37 20 -10 -11 -16 -8 -31 12 -10 13
-16 28 -14 32 8 13 62 9 68 -4 4 -7 4 -3 2 9 -3 16 4 29 22 42 25 18 26 19 8
45 -14 22 -20 25 -31 16 -8 -7 -19 -9 -25 -5 -18 11 -11 35 15 45 22 8 25 16
25 55 0 25 -4 45 -10 45 -5 0 -10 5 -10 11 0 5 5 7 10 4 6 -4 10 37 10 117 0
105 3 128 20 156 13 21 20 50 20 82 l0 50 -37 -2 c-21 0 -60 -4 -88 -7z m40
-591 c-8 -14 -32 -13 -41 2 -4 6 1 17 12 25 15 11 19 11 27 -2 4 -8 5 -20 2
-25z m-49 -24 c18 -19 18 -36 -1 -36 -9 0 -12 6 -9 15 4 8 1 15 -5 15 -6 0
-11 5 -11 10 0 14 9 12 26 -4z m54 -12 c0 -8 -5 -12 -10 -9 -6 4 -8 11 -5 16
9 14 15 11 15 -7z m0 -109 c0 -8 -7 -15 -15 -15 -8 0 -15 7 -15 15 0 8 7 15
15 15 8 0 15 -7 15 -15z"/>
<path d="M2817 2516 c-4 -10 -1 -19 8 -22 22 -9 9 -23 -15 -17 -15 4 -20 0
-20 -16 0 -11 4 -21 9 -21 4 0 14 -21 20 -47 7 -27 15 -60 20 -74 5 -17 4 -32
-5 -44 -9 -13 -12 -59 -11 -174 2 -146 1 -158 -20 -192 -16 -25 -23 -52 -23
-88 l0 -51 90 0 90 0 0 58 c0 40 -6 66 -20 87 -18 28 -20 48 -21 260 0 127 -3
224 -6 218 -7 -18 -33 -16 -33 2 0 8 8 15 19 15 27 0 40 21 30 48 -14 36 -47
20 -41 -20 2 -10 -1 -18 -7 -18 -5 0 -18 -3 -28 -6 -10 -3 -14 -2 -8 3 6 4 15
17 21 29 10 17 7 25 -16 53 -22 28 -28 31 -33 17z m42 -137 c-16 -10 -23 -4
-14 10 3 6 11 8 17 5 6 -4 5 -9 -3 -15z m41 -54 c0 -8 -4 -15 -10 -15 -5 0
-10 7 -10 15 0 8 5 15 10 15 6 0 10 -7 10 -15z"/>
<path d="M1944 1706 c-6 -6 -8 -20 -5 -29 6 -16 9 -16 26 -3 18 13 18 16 5 30
-12 11 -17 12 -26 2z"/>
<path d="M2981 1707 c-18 -18 -13 -43 8 -43 23 0 33 27 16 43 -9 9 -15 9 -24
0z"/>
<path d="M1573 1632 c8 -12 -79 -66 -93 -57 -14 9 -12 -7 4 -28 11 -14 15 -15
19 -4 3 8 23 23 45 35 42 22 62 16 62 -19 0 -27 -19 -33 -42 -12 -21 18 -21
18 -9 -4 6 -12 11 -27 11 -33 0 -20 -31 -23 -53 -4 -14 12 -13 8 5 -10 29 -32
58 -30 58 4 0 13 7 20 19 20 11 0 23 5 26 10 7 11 -33 97 -49 107 -5 3 -6 1
-3 -5z"/>
<path d="M1825 1598 c150 -169 326 -260 565 -292 177 -24 400 33 570 147 59
39 180 157 180 176 0 7 -37 -22 -83 -66 -97 -93 -195 -154 -310 -194 -304
-104 -647 -24 -871 206 -70 72 -110 90 -51 23z"/>
<path d="M3346 1613 c-9 -18 -12 -33 -7 -33 12 0 51 -62 60 -98 l8 -27 12 23
c11 20 10 26 -5 36 -11 8 -15 20 -11 30 4 11 3 15 -4 11 -11 -8 -38 22 -39 43
0 15 46 16 55 2 5 -8 11 -8 20 0 9 8 17 7 28 -4 13 -13 16 -12 26 10 14 32 14
41 -1 26 -16 -16 -115 -16 -121 1 -2 6 -11 -3 -21 -20z"/>
<path d="M1767 1606 c4 -6 16 -24 28 -41 42 -58 37 -59 -20 -5 -54 51 -56 52
-27 14 45 -59 156 -160 221 -202 321 -205 711 -201 1026 11 68 46 167 137 198
182 14 21 4 15 -31 -20 -57 -54 -68 -53 -24 4 53 68 46 66 -23 -7 -236 -250
-593 -340 -920 -231 -140 47 -226 100 -337 210 -54 54 -95 92 -91 85z"/>
<path d="M2192 1547 c-14 -17 2 -42 22 -34 20 8 20 21 2 36 -10 8 -16 8 -24
-2z"/>
<path d="M2732 1547 c-14 -17 2 -42 22 -34 20 8 20 21 2 36 -10 8 -16 8 -24
-2z"/>
<path d="M2476 1512 c-4 -12 -14 -22 -23 -22 -12 0 -13 -3 -4 -14 6 -7 8 -21
5 -31 -6 -15 -4 -16 14 -6 14 7 23 8 27 1 10 -16 25 -12 19 5 -4 8 -1 22 6 30
10 12 9 15 -4 15 -9 0 -20 10 -25 22 l-8 23 -7 -23z"/>
<path d="M3683 1473 c-99 -160 -169 -246 -279 -344 -176 -157 -423 -278 -662
-326 -126 -25 -435 -25 -552 1 -106 23 -264 77 -349 121 -204 103 -408 283
-526 463 -33 51 -62 87 -64 81 -6 -20 113 -183 204 -277 271 -282 631 -434
1026 -433 500 1 981 276 1215 694 27 50 17 66 -13 20z"/>
<path d="M1365 1430 l26 -55 -42 45 c-32 34 -38 38 -24 15 40 -67 130 -177
204 -248 285 -273 680 -409 1070 -370 442 44 799 263 1036 636 28 44 11 31
-24 -19 -40 -54 -51 -52 -21 5 30 61 18 50 -31 -26 -59 -93 -235 -266 -340
-336 -225 -149 -465 -220 -744 -220 -174 0 -275 15 -428 67 -290 97 -515 273
-695 542 -7 10 -1 -6 13 -36z"/>
<path d="M3202 1408 c-10 -12 -6 -20 20 -42 18 -15 37 -36 43 -47 11 -20 11
-20 30 1 18 19 18 20 -2 20 -19 0 -67 43 -75 69 -3 11 -6 11 -16 -1z"/>
<path d="M1760 1371 c0 -12 -97 -44 -110 -36 -18 11 -11 -11 10 -30 18 -16 20
-16 20 -2 0 25 33 21 60 -7 23 -26 22 -64 -2 -50 -7 4 -4 -2 6 -14 26 -30 31
-28 32 17 1 22 9 53 17 70 14 27 13 31 -2 45 -20 18 -31 20 -31 7z m19 -51
c-9 -25 -14 -28 -30 -20 -34 19 -21 47 23 49 15 1 15 -3 7 -29z"/>
<path d="M3010 1253 c-27 -17 -39 -29 -30 -31 18 -3 63 -79 55 -92 -9 -15 9
-12 31 5 16 12 17 14 3 15 -16 0 -29 19 -29 41 0 13 34 11 65 -3 19 -9 28 -9
37 0 9 9 7 12 -9 12 -40 0 -53 10 -47 37 4 16 2 28 -7 34 -19 12 -18 12 -69
-18z m65 -3 c3 -5 -4 -19 -15 -30 -17 -17 -24 -19 -36 -9 -17 14 -18 36 -1 42
21 9 46 7 52 -3z"/>
<path d="M1966 1216 c8 -20 -44 -98 -59 -91 -7 4 -3 -1 7 -9 19 -15 46 -23 33
-10 -10 10 12 44 28 44 14 0 20 -15 27 -64 2 -11 9 -21 16 -24 11 -3 12 0 3
16 -17 33 -13 52 14 62 37 14 31 36 -18 65 -50 29 -59 31 -51 11z m68 -39 c20
-32 -26 -41 -62 -12 -1 1 0 10 4 19 8 21 43 17 58 -7z"/>
<path d="M2770 1144 c-10 -3 -15 -19 -16 -53 -1 -27 -7 -58 -13 -70 -9 -16 -9
-21 1 -21 18 0 47 20 31 20 -19 0 -16 27 5 39 9 6 11 11 5 11 -14 0 -18 60 -5
60 17 0 44 -39 36 -51 -4 -7 -3 -10 4 -5 6 3 18 -4 26 -16 13 -18 19 -20 38
-10 16 7 18 11 7 11 -9 1 -35 21 -58 46 -23 25 -42 44 -44 44 -1 -1 -9 -3 -17
-5z"/>
<path d="M2208 1118 c6 -9 4 -30 -8 -65 -16 -48 -16 -53 -1 -53 10 0 17 10 18
27 0 15 5 29 11 31 5 1 7 14 4 27 -2 15 0 25 7 25 7 0 9 5 6 10 -3 6 -15 10
-27 10 -15 0 -18 -3 -10 -12z"/>
<path d="M2275 1103 c16 -16 16 -18 -3 -33 -20 -16 -20 -17 0 -29 16 -10 17
-15 8 -27 -7 -8 -22 -14 -34 -15 -11 0 -15 -3 -8 -6 7 -3 24 -2 37 1 21 5 23
11 22 53 -2 50 -11 73 -28 73 -6 0 -3 -8 6 -17z"/>
<path d="M2459 1044 c2 -40 -1 -59 -10 -65 -9 -5 14 -9 59 -9 61 0 72 3 72 17
0 13 -3 14 -12 5 -7 -7 -29 -12 -50 -12 l-38 0 3 52 c2 50 4 53 32 59 26 6 24
7 -15 8 l-45 1 4 -56z"/>
<path d="M2556 1085 c4 -8 8 -15 10 -15 2 0 4 7 4 15 0 8 -4 15 -10 15 -5 0
-7 -7 -4 -15z"/>
</g>
</svg>
